<?xml version="1.0" encoding="UTF-8" standalone="no"?>
<svg
   xmlns:dc="http://purl.org/dc/elements/1.1/"
   xmlns:cc="http://creativecommons.org/ns#"
   xmlns:rdf="http://www.w3.org/1999/02/22-rdf-syntax-ns#"
   xmlns:svg="http://www.w3.org/2000/svg"
   xmlns="http://www.w3.org/2000/svg"
   id="svg8"
   version="1.1"
   viewBox="0 0 135.46666 135.46667"
   height="512"
   width="512">
  <defs
     id="defs2" />
  <metadata
     id="metadata5">
    <rdf:RDF>
      <cc:Work
         rdf:about="">
        <dc:format>image/svg+xml</dc:format>
        <dc:type
           rdf:resource="http://purl.org/dc/dcmitype/StillImage" />
        <dc:title></dc:title>
      </cc:Work>
    </rdf:RDF>
  </metadata>
  <g
     transform="translate(0,-161.53332)"
     id="layer1">
    <rect
       y="161.22707"
       x="0"
       height="136.17383"
       width="135.77292"
       id="rect22007"
       style="fill:#ff1921;stroke-width:0.26458332;fill-opacity:1" />
    <path
       id="path22005"
       d="m 38.164424,275.65068 c -9.931242,-5.17847 -12.970575,-8.56373 -13.029007,-17.01528 -0.09616,-13.9085 21.618527,-17.47383 22.489583,-2.64583 0.661315,11.25757 12.461102,13.79656 22.224615,8.68859 2.675505,-1.39975 9.985523,-4.7815 10.060848,-23.97982 0.06113,-15.57819 -19.429283,-15.6665 -19.568288,-14.70918 -1.291243,3.7568 -7.024668,12.50772 -13.321031,10.91037 -7.967563,-2.36687 3.085594,-26.62382 5.015038,-36.90808 2.022396,-11.20919 6.607776,-21.68325 7.495068,-22.05396 1.162603,-0.48574 45.57372,-0.72836 46.30208,0 0.97742,0.97742 -0.38763,17.16764 -14.804093,17.18438 l -23.308474,0.0271 c 0,0 -1.812585,12.6558 -3.912916,17.89309 -0.565415,1.40989 0.613769,-0.7087 8.437852,-0.7087 37.639741,0 41.419521,51.20336 4.807328,65.12329 -10.451064,3.97348 -29.501489,3.08881 -38.888603,-1.80594 z"
       style="fill:#ffffff;stroke-width:2.82222199" />
  </g>
</svg>
